<svg id="Capa_1" fill="rgb(136, 136, 136)" enable-background="new 0 0 512 512" height="512" viewBox="0 0 512 512" width="512" xmlns="http://www.w3.org/2000/svg"><g><path d="m497 190.815h-24.765c-4.46-14.317-10.385-28.136-17.705-41.293l23.036-22.833c2.832-2.806 4.429-6.625 4.44-10.611s-1.565-7.814-4.381-10.636l-70.809-70.973c-5.838-5.853-15.31-5.876-21.18-.057l-24.813 24.604c-12.717-6.551-26.019-11.882-39.752-15.931v-28.085c0-8.284-6.716-15-15-15h-100.141c-8.284 0-15 6.716-15 15v28.084c-13.733 4.049-27.036 9.38-39.752 15.931l-24.814-24.604c-5.87-5.82-15.342-5.795-21.18.057l-70.809 70.973c-2.816 2.822-4.393 6.649-4.381 10.636s1.609 7.805 4.44 10.611l23.037 22.833c-7.32 13.157-13.246 26.976-17.706 41.293h-24.765c-8.284 0-15 6.716-15 15v100.37c0 8.284 6.716 15 15 15h24.765c4.46 14.317 10.385 28.136 17.706 41.293l-23.037 22.833c-2.832 2.806-4.429 6.625-4.44 10.611s1.565 7.814 4.381 10.636l70.809 70.972c5.838 5.852 15.31 5.876 21.18.058l24.814-24.604c12.716 6.551 26.019 11.882 39.752 15.931v28.086c0 8.284 6.716 15 15 15h100.14c8.284 0 15-6.716 15-15v-28.084c13.733-4.049 27.036-9.38 39.752-15.931l24.813 24.604c5.87 5.82 15.342 5.796 21.18-.057l70.809-70.972c2.816-2.822 4.393-6.649 4.381-10.636s-1.609-7.805-4.44-10.611l-23.037-22.833c7.32-13.158 13.246-26.977 17.706-41.293h24.766c8.284 0 15-6.716 15-15v-100.37c0-8.286-6.716-15.002-15-15.002zm-15 100.37h-21.112c-6.866 0-12.854 4.661-14.541 11.316-4.867 19.21-12.73 37.513-23.373 54.4-3.749 5.948-2.863 13.702 2.13 18.651l20.654 20.471-49.618 49.732-22.142-21.954c-4.816-4.775-12.237-5.726-18.102-2.315-16.63 9.67-34.567 16.844-53.311 21.319-6.752 1.612-11.516 7.647-11.516 14.59v24.605h-70.14v-24.604c0-6.942-4.764-12.978-11.516-14.59-18.744-4.476-36.68-11.649-53.31-21.319-5.864-3.411-13.285-2.46-18.102 2.315l-22.142 21.955-49.618-49.732 20.654-20.471c4.993-4.95 5.879-12.703 2.13-18.651-10.643-16.887-18.506-35.19-23.373-54.4-1.686-6.655-7.675-11.316-14.541-11.316h-21.111v-70.37h21.112c6.866 0 12.854-4.661 14.541-11.316 4.867-19.21 12.73-37.513 23.373-54.4 3.749-5.948 2.863-13.702-2.13-18.651l-20.654-20.472 49.618-49.733 22.142 21.955c4.817 4.776 12.238 5.727 18.102 2.315 16.63-9.67 34.566-16.843 53.31-21.319 6.752-1.612 11.516-7.647 11.516-14.59v-24.606h70.14v24.604c0 6.942 4.764 12.978 11.516 14.59 18.744 4.476 36.68 11.649 53.311 21.319 5.864 3.41 13.286 2.46 18.102-2.315l22.142-21.954 49.618 49.733-20.654 20.472c-4.994 4.949-5.879 12.703-2.13 18.651 10.642 16.885 18.506 35.188 23.373 54.399 1.686 6.655 7.675 11.316 14.541 11.316h21.111z"/><path d="m291.281 108.789c-4.55-1.403-9.497-.563-13.328 2.266-3.832 2.828-6.092 7.307-6.092 12.068v68.578l-15.882 12.389-15.979-12.409v-68.513c0-4.766-2.265-9.248-6.101-12.075-3.837-2.828-8.786-3.665-13.34-2.253-23.87 7.397-45.302 22.54-60.348 42.637-15.572 20.799-23.802 45.561-23.802 71.608 0 36.415 16.639 70.754 44.879 93.377v72.414c0 8.284 6.716 15 15 15h119.423c8.284 0 15-6.716 15-15v-72.414c28.24-22.623 44.879-56.962 44.879-93.377 0-26.077-8.248-50.861-23.85-71.674-15.078-20.112-36.55-35.249-60.459-42.622zm15.856 187.862c-4.026 2.805-6.426 7.401-6.426 12.308v64.918h-89.423v-64.918c0-4.907-2.4-9.503-6.426-12.308-24.078-16.774-38.453-44.275-38.453-73.565 0-19.515 6.161-38.059 17.817-53.628 6.992-9.339 15.818-17.25 25.773-23.235v52.802c0 4.633 2.141 9.006 5.8 11.847l31 24.074c5.422 4.21 13.012 4.203 18.426-.02l30.861-24.074c3.644-2.842 5.774-7.206 5.774-11.827v-52.888c9.994 5.983 18.855 13.907 25.875 23.27 11.68 15.58 17.854 34.143 17.854 53.68.001 29.288-14.374 56.789-38.452 73.564z"/>
</g>
</svg>